<svg width="310" height="83" viewBox="0 0 310 83" fill="none" xmlns="http://www.w3.org/2000/svg">
<path d="M78.1278 83H0.5V4.1339C0.5 2.10301 2.14968 0.45697 4.18506 0.45697H90.4051V70.7498C90.4051 77.5148 84.9078 83 78.1278 83Z" fill="url(#paint0_linear_775_4372)"/>
<path d="M101.061 75.2157V7.83942H126.712C134.77 7.83942 140.472 10.1856 143.827 14.878C147.182 19.575 148.855 24.2534 148.855 28.9226C148.855 34.1111 147.14 38.9194 143.711 43.3521C140.281 47.7848 134.616 50.0058 126.712 50.0058H116.888V69.7676C116.888 71.3765 116.265 72.6841 115.015 73.6949C113.765 74.7057 112.311 75.2111 110.647 75.2111H101.061V75.2157ZM132.953 28.9226C132.953 26.071 132.279 23.864 130.927 22.3107C129.574 20.7527 127.962 19.9784 126.094 19.9784H116.893V37.7927H126.094C128.018 37.7927 129.639 37.0276 130.969 35.4975C132.288 33.9674 132.953 31.7742 132.953 28.9226Z" fill="white"/>
<path d="M181.993 75.2151L178.326 63.0808H160.472L156.732 75.2151H140.435L162.81 7.84344H175.91L198.364 75.2151H181.993V75.2151ZM169.752 31.6438C169.645 32.0054 169.506 32.5758 169.325 33.3547C169.144 34.1337 169 34.7318 168.897 35.1445L163.985 51.6374H175.134L170.454 35.1445C170.347 34.7318 170.231 34.1337 170.101 33.3547C169.971 32.5804 169.855 32.0101 169.752 31.6438Z" fill="white"/>
<path d="M202.03 75.2157V7.83942H227.919C234.726 7.83942 240.052 9.82394 243.9 13.793C247.747 17.762 249.671 22.677 249.671 28.5378C249.671 33.309 248.217 37.4078 245.308 40.8298C242.394 44.2517 239.615 46.0924 236.966 46.3521C238.732 47.6504 240.057 48.9069 240.944 50.1264C241.827 51.3459 242.557 52.8111 243.128 54.522C244.378 58.1016 245.712 61.964 247.143 66.1138C248.574 70.2637 250.252 73.2961 252.176 75.2157H235.024C232.998 73.2961 231.539 70.2498 230.656 66.0721C229.773 61.8944 228.788 58.1758 227.691 54.9069C227.17 53.2979 226.455 51.8327 225.549 50.5112C224.638 49.1898 223.82 48.5267 223.09 48.5267H217.867V69.7629C217.867 71.3719 217.244 72.6795 215.994 73.6903C214.744 74.7011 213.29 75.2065 211.626 75.2065H202.03V75.2157ZM233.844 28.5331C233.844 25.8392 233.179 23.7341 231.855 22.2318C230.53 20.7295 228.955 19.9737 227.138 19.9737H217.858V37.0879H227.138C228.955 37.0879 230.53 36.3368 231.855 34.8298C233.179 33.3322 233.844 31.2317 233.844 28.5331Z" fill="white"/>
<path d="M46.9466 75.2106L43.2801 63.0762H25.4265L21.6856 75.2106H5.38867L27.7639 7.83887H40.8637L63.3179 75.2106H46.9466V75.2106ZM34.7065 31.6438C34.5996 32.0055 34.4602 32.5758 34.279 33.3548C34.0977 34.1338 33.9537 34.7273 33.8514 35.1446L28.9396 51.6374H40.0877L35.4082 35.1446C35.3013 34.7319 35.1851 34.1338 35.0596 33.3548C34.9249 32.5805 34.8087 32.0101 34.7065 31.6438Z" fill="white"/>
<path d="M66.9048 7.83887H82.7324V69.767C82.7324 71.376 82.1097 72.6835 80.8597 73.6943C79.6143 74.7051 78.1551 75.2106 76.4915 75.2106H66.9048V7.83887Z" fill="white"/>
<path d="M298 61.8063L277.442 37.8437L277.209 35.683L272.046 46.8065V7.83942H256.219V75.2111H265.81C267.474 75.2111 268.928 74.7057 270.178 73.6949C271.428 72.6841 272.051 71.3719 272.051 69.7676V51.6287L292.168 75.2157H309.478L298 61.8063Z" fill="white"/>
<path d="M272.734 50.8022C291.726 37.7266 307.042 35.4407 306.271 9.02991C306.252 8.44104 305.49 8.22312 305.17 8.71461C291.684 29.0977 263.263 21.6696 271.804 50.4776C271.921 50.8717 272.395 51.034 272.734 50.8022Z" fill="url(#paint1_linear_775_4372)"/>
<defs>
<linearGradient id="paint0_linear_775_4372" x1="5.30753" y1="1.6724" x2="86.7668" y2="83.3118" gradientUnits="userSpaceOnUse">
<stop stop-color="#0DFF1E"/>
<stop offset="0.2301" stop-color="#09CC5D"/>
<stop offset="0.5029" stop-color="#0594A2"/>
<stop offset="0.7315" stop-color="#026BD4"/>
<stop offset="0.9038" stop-color="#0152F3"/>
<stop offset="1" stop-color="#0049FF"/>
</linearGradient>
<linearGradient id="paint1_linear_775_4372" x1="269.811" y1="48.5925" x2="307.9" y2="10.4196" gradientUnits="userSpaceOnUse">
<stop stop-color="#0049FF"/>
<stop offset="1" stop-color="#0DFF1E"/>
</linearGradient>
</defs>
</svg>
