<svg width="61" height="60" viewBox="0 0 61 60" fill="none" xmlns="http://www.w3.org/2000/svg">
<path d="M40.3398 16.8332C40.3398 21.9878 36.158 26.1665 30.9995 26.1665C25.841 26.1665 21.6592 21.9878 21.6592 16.8332C21.6592 11.6786 25.841 7.5 30.9995 7.5C36.158 7.5 40.3398 11.6786 40.3398 16.8332Z" fill="#5C4DF7"/>
<path d="M10.7627 49.5C10.3328 49.5 9.98259 49.1287 10.0007 48.6713C10.0985 46.1964 10.6338 43.756 11.584 41.4637C12.6402 38.9159 14.1882 36.6009 16.1397 34.6509C18.0911 32.7009 20.4079 31.1541 22.9576 30.0987C25.5074 29.0434 28.2402 28.5002 31 28.5002C33.7598 28.5002 36.4926 29.0434 39.0424 30.0987C41.5921 31.1541 43.9089 32.7009 45.8603 34.6509C47.8118 36.6009 49.3598 38.9159 50.416 41.4637C51.3662 43.756 51.9015 46.1964 51.9993 48.6713C52.0174 49.1287 51.6672 49.5 51.2373 49.5L31 49.5L10.7627 49.5Z" fill="#5C4DF7"/>
</svg>
