<svg width="61" height="60" viewBox="0 0 61 60" fill="none" xmlns="http://www.w3.org/2000/svg">
<g clip-path="url(#clip0_775_4417)">
<path d="M30.869 26.8946C30.8251 26.8385 30.7691 26.7932 30.7051 26.7621C30.6412 26.7309 30.571 26.7147 30.4998 26.7147C30.4287 26.7147 30.3585 26.7309 30.2945 26.7621C30.2306 26.7932 30.1745 26.8385 30.1307 26.8946L23.5682 35.1973C23.5141 35.2664 23.4805 35.3493 23.4713 35.4366C23.4621 35.5238 23.4777 35.6119 23.5162 35.6908C23.5547 35.7696 23.6146 35.836 23.6891 35.8824C23.7636 35.9288 23.8496 35.9534 23.9373 35.9532H28.2674V50.1563C28.2674 50.4141 28.4784 50.625 28.7362 50.625H32.2518C32.5096 50.625 32.7205 50.4141 32.7205 50.1563V35.959H37.0623C37.4549 35.959 37.6717 35.5079 37.4315 35.2032L30.869 26.8946Z" fill="#5C4DF7"/>
<path d="M48.043 21.4863C45.3594 14.4082 38.5215 9.375 30.5117 9.375C22.502 9.375 15.6641 14.4023 12.9805 21.4805C7.95898 22.7988 4.25 27.375 4.25 32.8125C4.25 39.2871 9.49414 44.5313 15.9629 44.5313H18.3125C18.5703 44.5313 18.7813 44.3203 18.7813 44.0625V40.5469C18.7813 40.2891 18.5703 40.0781 18.3125 40.0781H15.9629C13.9883 40.0781 12.1309 39.293 10.748 37.8691C9.37109 36.4512 8.63867 34.541 8.70313 32.5605C8.75586 31.0137 9.2832 29.5605 10.2383 28.3359C11.2168 27.0879 12.5879 26.1797 14.1113 25.7754L16.332 25.1953L17.1465 23.0508C17.6504 21.7148 18.3535 20.4668 19.2383 19.3359C20.1117 18.2151 21.1464 17.2298 22.3086 16.4121C24.7168 14.7188 27.5527 13.8223 30.5117 13.8223C33.4707 13.8223 36.3066 14.7188 38.7148 16.4121C39.8809 17.2324 40.9121 18.2168 41.7852 19.3359C42.6699 20.4668 43.373 21.7207 43.877 23.0508L44.6855 25.1895L46.9004 25.7754C50.0762 26.6309 52.2969 29.5195 52.2969 32.8125C52.2969 34.752 51.541 36.5801 50.1699 37.9512C49.4975 38.6275 48.6976 39.1637 47.8166 39.5288C46.9355 39.8939 45.9908 40.0806 45.0371 40.0781H42.6875C42.4297 40.0781 42.2188 40.2891 42.2188 40.5469V44.0625C42.2188 44.3203 42.4297 44.5313 42.6875 44.5313H45.0371C51.5059 44.5313 56.75 39.2871 56.75 32.8125C56.75 27.3809 53.0527 22.8105 48.043 21.4863Z" fill="#5C4DF7"/>
</g>
<defs>
<clipPath id="clip0_775_4417">
<rect width="60" height="60" fill="white" transform="translate(0.5)"/>
</clipPath>
</defs>
</svg>
