<svg width="73" height="72" viewBox="0 0 73 72" fill="none" xmlns="http://www.w3.org/2000/svg">
<path d="M21.5 60C21.5 55.0294 28.2157 51 36.5 51C44.7843 51 51.5 55.0294 51.5 60" stroke="#5C4DF7" stroke-width="6" stroke-linecap="round" stroke-linejoin="round"/>
<path d="M54.5 42.748C59.7977 44.1368 63.5 47.3086 63.5 50.9992" stroke="#5C4DF7" stroke-width="6" stroke-linecap="round" stroke-linejoin="round"/>
<path d="M18.5 42.748C13.2023 44.1368 9.5 47.3086 9.5 50.9992" stroke="#5C4DF7" stroke-width="6" stroke-linecap="round" stroke-linejoin="round"/>
<path d="M36.5 42C41.4706 42 45.5 37.9706 45.5 33C45.5 28.0294 41.4706 24 36.5 24C31.5294 24 27.5 28.0294 27.5 33C27.5 37.9706 31.5294 42 36.5 42Z" stroke="#5C4DF7" stroke-width="6" stroke-linecap="round" stroke-linejoin="round"/>
<path d="M54.5 30.7083C56.3412 29.0604 57.5 26.6655 57.5 24C57.5 19.0294 53.4706 15 48.5 15C46.1949 15 44.0923 15.8666 42.5 17.2917" stroke="#5C4DF7" stroke-width="6" stroke-linecap="round" stroke-linejoin="round"/>
<path d="M18.5 30.7083C16.6588 29.0604 15.5 26.6655 15.5 24C15.5 19.0294 19.5294 15 24.5 15C26.8051 15 28.9077 15.8666 30.5 17.2917" stroke="#5C4DF7" stroke-width="6" stroke-linecap="round" stroke-linejoin="round"/>
</svg>
