<svg width="73" height="72" viewBox="0 0 73 72" fill="none" xmlns="http://www.w3.org/2000/svg">
<path d="M35.0099 4.66452C35.8048 3.77651 37.1952 3.77651 37.9901 4.66452L45.2041 12.7229C45.6093 13.1754 46.1982 13.4193 46.8047 13.3858L57.6039 12.7888C58.7939 12.723 59.777 13.7061 59.7112 14.8961L59.1142 25.6953C59.0807 26.3018 59.3246 26.8907 59.7771 27.2959L67.8355 34.5099C68.7235 35.3048 68.7235 36.6952 67.8355 37.4901L59.7771 44.7041C59.3246 45.1093 59.0807 45.6982 59.1142 46.3047L59.7112 57.1039C59.777 58.2939 58.7939 59.277 57.6039 59.2112L46.8047 58.6142C46.1982 58.5807 45.6093 58.8246 45.2041 59.2771L37.9901 67.3355C37.1952 68.2235 35.8048 68.2235 35.0099 67.3355L27.7959 59.2771C27.3907 58.8246 26.8018 58.5807 26.1953 58.6142L15.3961 59.2112C14.2061 59.277 13.223 58.2939 13.2888 57.1039L13.8858 46.3047C13.9193 45.6982 13.6754 45.1093 13.2229 44.7041L5.16452 37.4901C4.27651 36.6952 4.27651 35.3048 5.16452 34.5099L13.2229 27.2959C13.6754 26.8907 13.9193 26.3018 13.8858 25.6953L13.2888 14.8961C13.223 13.7061 14.2061 12.723 15.3961 12.7888L26.1953 13.3858C26.8018 13.4193 27.3907 13.1754 27.7959 12.7229L35.0099 4.66452Z" stroke="#5C4DF7" stroke-width="6"/>
<circle cx="44" cy="43.5" r="4.5" fill="#5C4DF7"/>
<circle cx="29" cy="28.5" r="4.5" fill="#5C4DF7"/>
<path d="M45.5 27L27.5 45" stroke="#5C4DF7" stroke-width="6" stroke-linecap="round" stroke-linejoin="round"/>
</svg>
