<svg width="120" height="120" viewBox="0 0 120 120" fill="none" xmlns="http://www.w3.org/2000/svg">
<path d="M60.6152 54.8242C60.5421 54.7308 60.4487 54.6553 60.3422 54.6033C60.2356 54.5514 60.1185 54.5244 60 54.5244C59.8814 54.5244 59.7644 54.5514 59.6578 54.6033C59.5512 54.6553 59.4578 54.7308 59.3847 54.8242L48.4472 68.6621C48.3571 68.7772 48.3011 68.9154 48.2858 69.0608C48.2705 69.2063 48.2964 69.3531 48.3605 69.4845C48.4247 69.6159 48.5246 69.7266 48.6487 69.804C48.7728 69.8813 48.9162 69.9221 49.0625 69.9218H56.2793V93.5937C56.2793 94.0234 56.6308 94.375 57.0605 94.375H62.9199C63.3496 94.375 63.7011 94.0234 63.7011 93.5937V69.9316H70.9375C71.5918 69.9316 71.9531 69.1796 71.5527 68.6718L60.6152 54.8242Z" fill="white"/>
<path d="M89.2383 45.8105C84.7656 34.0137 73.3691 25.625 60.0195 25.625C46.6699 25.625 35.2734 34.0039 30.8008 45.8008C22.4316 47.998 16.25 55.625 16.25 64.6875C16.25 75.4785 24.9902 84.2188 35.7715 84.2188H39.6875C40.1172 84.2188 40.4688 83.8672 40.4688 83.4375V77.5781C40.4688 77.1484 40.1172 76.7969 39.6875 76.7969H35.7715C32.4805 76.7969 29.3848 75.4883 27.0801 73.1152C24.7852 70.752 23.5645 67.5684 23.6719 64.2676C23.7598 61.6895 24.6387 59.2676 26.2305 57.2266C27.8613 55.1465 30.1465 53.6328 32.6855 52.959L36.3867 51.9922L37.7441 48.418C38.584 46.1914 39.7559 44.1113 41.2305 42.2266C42.6862 40.3585 44.4107 38.7163 46.3477 37.3535C50.3613 34.5313 55.0879 33.0371 60.0195 33.0371C64.9512 33.0371 69.6777 34.5313 73.6914 37.3535C75.6348 38.7207 77.3535 40.3613 78.8086 42.2266C80.2832 44.1113 81.4551 46.2012 82.2949 48.418L83.6426 51.9824L87.334 52.959C92.627 54.3848 96.3281 59.1992 96.3281 64.6875C96.3281 67.9199 95.0684 70.9668 92.7832 73.252C91.6625 74.3792 90.3294 75.2729 88.861 75.8814C87.3926 76.4899 85.818 76.801 84.2285 76.7969H80.3125C79.8828 76.7969 79.5312 77.1484 79.5312 77.5781V83.4375C79.5312 83.8672 79.8828 84.2188 80.3125 84.2188H84.2285C95.0098 84.2188 103.75 75.4785 103.75 64.6875C103.75 55.6348 97.5879 48.0176 89.2383 45.8105Z" fill="white"/>
</svg>
