<svg width="40" height="40" viewBox="0 0 40 40" fill="none" xmlns="http://www.w3.org/2000/svg">
<path d="M18.2635 9.03885C19.0313 7.69522 20.9687 7.69522 21.7365 9.03885L34.2901 31.0077C35.052 32.341 34.0893 34 32.5536 34H7.44636C5.91071 34 4.94798 32.341 5.70987 31.0077L18.2635 9.03885Z" fill="#5C4DF7"/>
<path d="M20.3761 16.0244C20.9361 16.0244 21.387 16.4842 21.3759 17.0441L21.2204 24.9261C21.2096 25.4706 20.7652 25.9064 20.2206 25.9064H20.1041C19.5595 25.9064 19.115 25.4706 19.1043 24.9261L18.9488 17.0441C18.9377 16.4842 19.3886 16.0244 19.9486 16.0244H20.3761ZM20.1661 30.0244C19.7511 30.0244 19.3961 29.8935 19.1011 29.6316C18.8061 29.3652 18.6611 29.0446 18.6661 28.6698C18.6611 28.2995 18.8061 27.9835 19.1011 27.7216C19.3961 27.4552 19.7511 27.3219 20.1661 27.3219C20.5711 27.3219 20.921 27.4552 21.216 27.7216C21.511 27.9835 21.661 28.2995 21.666 28.6698C21.661 28.9181 21.5885 29.1462 21.4485 29.3539C21.3135 29.5571 21.1335 29.7196 20.9085 29.8415C20.6836 29.9635 20.4361 30.0244 20.1661 30.0244Z" fill="white"/>
</svg>
