<svg width="12" height="12" viewBox="0 0 12 12" fill="none" xmlns="http://www.w3.org/2000/svg">
<path fill-rule="evenodd" clip-rule="evenodd" d="M0.196325 1.16634C-0.0644653 0.899414 -0.0644652 0.466637 0.196325 0.199708C0.457116 -0.0672204 0.879941 -0.0672204 1.14073 0.199708L6.00049 5.17384L10.8602 0.199708C11.121 -0.0672204 11.5439 -0.0672204 11.8047 0.199708C12.0654 0.466637 12.0654 0.899414 11.8047 1.16634L6.9449 6.14048L11.5292 10.8327C11.79 11.0996 11.79 11.5324 11.5292 11.7993C11.2684 12.0662 10.8456 12.0662 10.5848 11.7993L6.00049 7.10711L1.41618 11.7993C1.15539 12.0662 0.732567 12.0662 0.471776 11.7993C0.210986 11.5324 0.210986 11.0996 0.471776 10.8327L5.05608 6.14048L0.196325 1.16634Z" fill="white"/>
</svg>
