<svg width="121" height="31" viewBox="0 0 121 31" fill="none" xmlns="http://www.w3.org/2000/svg">
<g clip-path="url(#clip0_1191_5776)">
<path d="M30.6493 30.8378H0.5V1.5028C0.5 0.747392 1.14071 0.135132 1.93121 0.135132H35.4177V26.2812C35.4177 28.7975 33.2826 30.8378 30.6493 30.8378Z" fill="url(#paint0_linear_1191_5776)"/>
<path d="M39.5562 27.9421V2.88081H49.5187C52.6482 2.88081 54.8627 3.7535 56.1658 5.49887C57.4689 7.24597 58.1186 8.98617 58.1186 10.7229C58.1186 12.6528 57.4526 14.4413 56.1207 16.0901C54.7887 17.7389 52.5887 18.565 49.5187 18.565H45.7033V25.9156C45.7033 26.5141 45.4615 27.0004 44.976 27.3764C44.4905 27.7524 43.9256 27.9404 43.2795 27.9404H39.5562V27.9421ZM51.9426 10.7229C51.9426 9.66224 51.6809 8.8413 51.1557 8.26353C50.6305 7.68404 50.0042 7.39602 49.2787 7.39602H45.7051V14.0222H49.2787C50.0259 14.0222 50.6557 13.7377 51.1719 13.1685C51.6845 12.5994 51.9426 11.7836 51.9426 10.7229Z" fill="white"/>
<path d="M70.9886 27.9421L69.5646 23.4286H62.6305L61.1776 27.9421H54.8481L63.5383 2.88254H68.6261L77.3469 27.9421H70.9886V27.9421ZM66.2347 11.7353C66.1932 11.8698 66.139 12.082 66.0686 12.3717C65.9983 12.6615 65.9423 12.8839 65.9026 13.0374L63.9949 19.1721H68.3247L66.5072 13.0374C66.4657 12.8839 66.4206 12.6615 66.3701 12.3717C66.3195 12.0837 66.2744 11.8716 66.2347 11.7353Z" fill="white"/>
<path d="M78.771 27.9421V2.88081H88.8256C91.4696 2.88081 93.538 3.61898 95.0323 5.0953C96.5267 6.57162 97.2739 8.39978 97.2739 10.5798C97.2739 12.3545 96.709 13.8791 95.5792 15.1519C94.4476 16.4247 93.3683 17.1094 92.3396 17.206C93.0254 17.6889 93.5398 18.1563 93.8845 18.6099C94.2274 19.0635 94.5107 19.6085 94.7327 20.2449C95.2182 21.5763 95.7362 23.013 96.2921 24.5566C96.848 26.1001 97.4995 27.2281 98.2467 27.9421H91.5851C90.7982 27.2281 90.2315 26.095 89.8886 24.541C89.5457 22.9871 89.1631 21.6039 88.7372 20.388C88.535 19.7895 88.2571 19.2445 87.9051 18.753C87.5514 18.2615 87.2338 18.0149 86.9504 18.0149H84.9218V25.9139C84.9218 26.5123 84.6799 26.9987 84.1945 27.3747C83.709 27.7507 83.144 27.9386 82.4979 27.9386H78.771V27.9421ZM91.1267 10.578C91.1267 9.57601 90.8686 8.79301 90.3543 8.23421C89.8399 7.67542 89.2281 7.39429 88.5224 7.39429H84.9182V13.7601H88.5224C89.2281 13.7601 89.8399 13.4807 90.3543 12.9202C90.8686 12.3631 91.1267 11.5818 91.1267 10.578Z" fill="white"/>
<path d="M18.5388 27.9404L17.1149 23.4269H10.1808L8.72791 27.9404H2.39844L11.0886 2.88081H16.1764L24.8972 27.9404H18.5388V27.9404ZM13.785 11.7353C13.7435 11.8698 13.6893 12.082 13.6189 12.3717C13.5486 12.6615 13.4926 12.8822 13.4529 13.0374L11.5452 19.1721H15.875L14.0575 13.0374C14.016 12.8839 13.9709 12.6615 13.9221 12.3717C13.8698 12.0837 13.8247 11.8716 13.785 11.7353Z" fill="white"/>
<path d="M26.2905 2.88081H32.4377V25.9156C32.4377 26.5141 32.1959 27.0004 31.7104 27.3764C31.2267 27.7524 30.66 27.9404 30.0139 27.9404H26.2905V2.88081Z" fill="white"/>
<path d="M116.044 22.9543L108.059 14.0412L107.969 13.2375L105.964 17.375V2.88081H99.8169V27.9404H103.542C104.188 27.9404 104.753 27.7524 105.239 27.3764C105.724 27.0004 105.966 26.5123 105.966 25.9156V19.1687L113.779 27.9421H120.502L116.044 22.9543Z" fill="white"/>
<path d="M106.231 18.8617C113.608 13.9981 119.556 13.1478 119.257 3.32406C119.249 3.10503 118.953 3.02397 118.829 3.20678C113.591 10.7885 102.553 8.02553 105.87 18.7409C105.915 18.8875 106.1 18.9479 106.231 18.8617Z" fill="url(#paint1_linear_1191_5776)"/>
</g>
<defs>
<linearGradient id="paint0_linear_1191_5776" x1="2.36717" y1="0.587222" x2="32.6356" y2="32.262" gradientUnits="userSpaceOnUse">
<stop stop-color="#0DFF1E"/>
<stop offset="0.2301" stop-color="#09CC5D"/>
<stop offset="0.5029" stop-color="#0594A2"/>
<stop offset="0.7315" stop-color="#026BD4"/>
<stop offset="0.9038" stop-color="#0152F3"/>
<stop offset="1" stop-color="#0049FF"/>
</linearGradient>
<linearGradient id="paint1_linear_1191_5776" x1="105.096" y1="18.0397" x2="119.249" y2="3.22929" gradientUnits="userSpaceOnUse">
<stop stop-color="#0049FF"/>
<stop offset="1" stop-color="#0DFF1E"/>
</linearGradient>
<clipPath id="clip0_1191_5776">
<rect width="120" height="30.7027" fill="white" transform="translate(0.5 0.135132)"/>
</clipPath>
</defs>
</svg>
