<svg width="140" height="116" viewBox="0 0 140 116" fill="none" xmlns="http://www.w3.org/2000/svg">
<path d="M85.7795 55.614H33.6377V2.47736C33.6377 1.10903 34.7458 0 36.1131 0H94.0297V47.3603C94.0297 51.9183 90.3369 55.614 85.7795 55.614Z" fill="url(#paint0_linear_775_3881)"/>
<path d="M64.8376 50.3658L62.3747 42.1902H50.3819L47.869 50.3658H36.9219L51.952 4.97363H60.7515L75.8347 50.3658H64.8376ZM56.6155 21.0124C56.5437 21.2561 56.4501 21.6403 56.3283 22.1652C56.2066 22.69 56.1098 23.0899 56.0412 23.371L52.7417 34.4832H60.2302L57.0869 23.371C57.0151 23.093 56.937 22.69 56.8528 22.1652C56.7622 21.6435 56.6842 21.2592 56.6155 21.0124Z" fill="white"/>
<path d="M78.2441 4.97363H88.876V46.6982C88.876 47.7822 88.4577 48.6632 87.618 49.3442C86.7814 50.0253 85.8013 50.3658 84.6838 50.3658H78.241V4.97363H78.2441Z" fill="white"/>
<path d="M0 115.997V70.6045H17.2308C22.6435 70.6045 26.4736 72.1852 28.7273 75.3468C30.981 78.5114 32.1048 81.6636 32.1048 84.8095C32.1048 88.3053 30.953 91.5449 28.6493 94.5314C26.3456 97.518 22.5405 99.0144 17.2308 99.0144H10.6319V112.329C10.6319 113.413 10.2136 114.294 9.37391 114.975C8.53735 115.656 7.55719 115.997 6.43969 115.997H0ZM21.4198 84.8095C21.4198 82.8882 20.9672 81.4011 20.0589 80.3546C19.1505 79.3049 18.0673 78.7832 16.8125 78.7832H10.6319V90.7857H16.8125C18.1048 90.7857 19.1942 90.2703 20.087 89.2393C20.9766 88.2084 21.4198 86.7307 21.4198 84.8095Z" fill="white"/>
<path d="M54.364 115.997L51.9011 107.821H39.9082L37.3954 115.997H26.4482L41.4783 70.6045H50.2779L65.3611 115.997H54.364ZM46.1419 86.6433C46.0701 86.8869 45.9764 87.2712 45.8547 87.796C45.733 88.3209 45.6362 88.7239 45.5675 89.0019L42.2681 100.114H49.7566L46.6132 89.0019C46.5414 88.7239 46.4634 88.3209 46.376 87.796C46.2886 87.2712 46.2106 86.8869 46.1419 86.6433Z" fill="white"/>
<path d="M67.8242 115.997V70.6045H85.2142C89.7872 70.6045 93.3645 71.9416 95.9491 74.6157C98.5337 77.2899 99.826 80.6014 99.826 84.5502C99.826 87.7648 98.849 90.5264 96.8949 92.832C94.9377 95.1375 93.071 96.3778 91.2918 96.5527C92.478 97.4274 93.3676 98.274 93.9638 99.0957C94.5569 99.9173 95.047 100.904 95.4309 102.057C96.2706 104.469 97.1665 107.071 98.1279 109.867C99.0893 112.663 100.216 114.706 101.509 116H89.987C88.626 114.706 87.6458 112.654 87.0528 109.839C86.4597 107.028 85.7979 104.519 85.0612 102.317C84.7116 101.232 84.2309 100.245 83.6222 99.3549C83.0104 98.4646 82.461 98.0179 81.9709 98.0179H78.4623V112.326C78.4623 113.41 78.0441 114.291 77.2044 114.972C76.3647 115.653 75.3877 115.994 74.2701 115.994H67.8242V115.997ZM89.1941 84.547C89.1941 82.732 88.7477 81.3137 87.8581 80.3015C86.9685 79.2893 85.9103 78.7801 84.6898 78.7801H78.4561V90.3109H84.6898C85.9103 90.3109 86.9685 89.8048 87.8581 88.7895C88.7477 87.7804 89.1941 86.3652 89.1941 84.547Z" fill="white"/>
<path d="M132.29 106.962L118.48 90.817L118.324 89.3612L114.856 96.8557V70.6045H104.224V115.997H110.667C111.785 115.997 112.762 115.656 113.601 114.975C114.441 114.294 114.859 113.41 114.859 112.329V100.108L128.372 116H140L132.29 106.962Z" fill="white"/>
<path d="M115.315 99.5491C128.073 90.7393 138.361 89.1992 137.843 71.4047C137.831 71.0079 137.319 70.8611 137.103 71.1922C128.045 84.9255 108.953 79.9208 114.691 99.3304C114.769 99.5959 115.09 99.7053 115.315 99.5491Z" fill="url(#paint1_linear_775_3881)"/>
<defs>
<linearGradient id="paint0_linear_775_3881" x1="36.8666" y1="0.818904" x2="91.7505" y2="55.6587" gradientUnits="userSpaceOnUse">
<stop stop-color="#0DFF1E"/>
<stop offset="0.2301" stop-color="#09CC5D"/>
<stop offset="0.5029" stop-color="#0594A2"/>
<stop offset="0.7315" stop-color="#026BD4"/>
<stop offset="0.9038" stop-color="#0152F3"/>
<stop offset="1" stop-color="#0049FF"/>
</linearGradient>
<linearGradient id="paint1_linear_775_3881" x1="113.354" y1="98.0621" x2="139.017" y2="72.4202" gradientUnits="userSpaceOnUse">
<stop stop-color="#0049FF"/>
<stop offset="1" stop-color="#0DFF1E"/>
</linearGradient>
</defs>
</svg>
