<svg width="138" height="36" viewBox="0 0 138 36" fill="none" xmlns="http://www.w3.org/2000/svg">
<path d="M34.6718 36H0V1.60364C0 0.717897 0.736814 0 1.6459 0H40.1553V30.6572C40.1553 33.6077 37.7 36 34.6718 36Z" fill="url(#paint0_linear_775_5973)"/>
<path d="M44.9141 32.6045V3.21924H56.371C59.97 3.21924 62.5166 4.24249 64.0152 6.28901C65.5137 8.33754 66.2609 10.378 66.2609 12.4144C66.2609 14.6773 65.495 16.7743 63.9633 18.7076C62.4315 20.6409 59.9015 21.6095 56.371 21.6095H51.9833V30.2283C51.9833 30.9301 51.7052 31.5003 51.1469 31.9412C50.5886 32.382 49.9389 32.6025 49.1959 32.6025H44.9141V32.6045ZM59.1584 12.4144C59.1584 11.1707 58.8575 10.2081 58.2535 9.53066C57.6495 8.85119 56.9293 8.51347 56.0949 8.51347H51.9854V16.2829H56.0949C56.9542 16.2829 57.6786 15.9493 58.2722 15.2819C58.8616 14.6146 59.1584 13.6581 59.1584 12.4144Z" fill="white"/>
<path d="M81.0615 32.6049L79.4239 27.3127H71.4497L69.7789 32.6049H62.5L72.4937 3.22168H78.3446L88.3736 32.6049H81.0615ZM75.5945 13.6019C75.5468 13.7596 75.4845 14.0083 75.4036 14.3481C75.3226 14.6878 75.2583 14.9487 75.2126 15.1287L73.0188 22.3218H77.998L75.9079 15.1287C75.8602 14.9487 75.8083 14.6878 75.7502 14.3481C75.6921 14.0104 75.6402 13.7616 75.5945 13.6019Z" fill="white"/>
<path d="M90.0117 32.6045V3.21924H101.575C104.615 3.21924 106.994 4.08476 108.712 5.8158C110.431 7.54684 111.29 9.69042 111.29 12.2465C111.29 14.3274 110.64 16.1151 109.341 17.6075C108.04 19.0999 106.799 19.9028 105.616 20.016C106.404 20.5822 106.996 21.1303 107.392 21.6621C107.787 22.194 108.112 22.833 108.368 23.5792C108.926 25.1404 109.522 26.8249 110.161 28.6348C110.8 30.4447 111.55 31.7673 112.409 32.6045H104.748C103.843 31.7673 103.191 30.4387 102.797 28.6166C102.403 26.7946 101.963 25.1727 101.473 23.747C101.24 23.0453 100.921 22.4063 100.516 21.83C100.109 21.2536 99.7439 20.9644 99.418 20.9644H97.0851V30.2263C97.0851 30.928 96.807 31.4983 96.2487 31.9392C95.6904 32.38 95.0407 32.6004 94.2977 32.6004H90.0117V32.6045ZM104.221 12.2445C104.221 11.0696 103.924 10.1515 103.332 9.49629C102.741 8.84108 102.037 8.51145 101.226 8.51145H97.081V15.9756H101.226C102.037 15.9756 102.741 15.648 103.332 14.9907C103.924 14.3375 104.221 13.4215 104.221 12.2445Z" fill="white"/>
<path d="M20.7451 32.6025L19.1075 27.3102H11.1333L9.46248 32.6025H2.18359L12.1773 3.21924H18.0282L28.0572 32.6025H20.7451ZM15.2781 13.6014C15.2304 13.7592 15.1681 14.0079 15.0872 14.3477C15.0062 14.6874 14.9419 14.9462 14.8962 15.1282L12.7024 22.3214H17.6816L15.5915 15.1282C15.5438 14.9483 15.4919 14.6874 15.4359 14.3477C15.3757 14.0099 15.3238 13.7612 15.2781 13.6014Z" fill="white"/>
<path d="M29.6592 3.21924H36.7284V30.2283C36.7284 30.9301 36.4503 31.5003 35.892 31.9412C35.3358 32.382 34.684 32.6025 33.941 32.6025H29.6592V3.21924Z" fill="white"/>
<path d="M132.876 26.7561L123.694 16.3052L123.59 15.3628L121.284 20.2142V3.21924H114.215V32.6025H118.499C119.242 32.6025 119.891 32.382 120.45 31.9412C121.008 31.5003 121.286 30.928 121.286 30.2283V22.3173L130.271 32.6045H138.003L132.876 26.7561Z" fill="white"/>
<path d="M121.591 21.9577C130.074 16.255 136.915 15.2581 136.57 3.73935C136.562 3.48252 136.221 3.38748 136.078 3.60183C130.055 12.4916 117.361 9.25199 121.176 21.8162C121.228 21.9881 121.439 22.0589 121.591 21.9577Z" fill="url(#paint1_linear_775_5973)"/>
<defs>
<linearGradient id="paint0_linear_775_5973" x1="2.14724" y1="0.530091" x2="37.6626" y2="36.9813" gradientUnits="userSpaceOnUse">
<stop stop-color="#0DFF1E"/>
<stop offset="0.2301" stop-color="#09CC5D"/>
<stop offset="0.5029" stop-color="#0594A2"/>
<stop offset="0.7315" stop-color="#026BD4"/>
<stop offset="0.9038" stop-color="#0152F3"/>
<stop offset="1" stop-color="#0049FF"/>
</linearGradient>
<linearGradient id="paint1_linear_775_5973" x1="120.286" y1="20.994" x2="136.892" y2="3.95018" gradientUnits="userSpaceOnUse">
<stop stop-color="#0049FF"/>
<stop offset="1" stop-color="#0DFF1E"/>
</linearGradient>
</defs>
</svg>
