<svg width="24" height="25" viewBox="0 0 24 25" fill="none" xmlns="http://www.w3.org/2000/svg">
<g clip-path="url(#clip0_1047_6184)">
<circle cx="12" cy="7.90723" r="4" fill="#5C4DF7"/>
<path d="M5 21.9072C3.89543 21.9072 2.97787 21.001 3.22131 19.9236C3.33383 19.4257 3.48879 18.937 3.68508 18.4631C4.13738 17.3711 4.80031 16.379 5.63604 15.5433C6.47177 14.7075 7.46392 14.0446 8.55585 13.5923C9.64778 13.14 10.8181 12.9072 12 12.9072C13.1819 12.9072 14.3522 13.14 15.4442 13.5923C16.5361 14.0446 17.5282 14.7075 18.364 15.5433C19.1997 16.379 19.8626 17.3711 20.3149 18.4631C20.5112 18.937 20.6662 19.4257 20.7787 19.9236C21.0221 21.001 20.1046 21.9072 19 21.9072L12 21.9072L5 21.9072Z" fill="#5C4DF7"/>
</g>
<defs>
<clipPath id="clip0_1047_6184">
<rect width="24" height="24" fill="white" transform="translate(0 0.907227)"/>
</clipPath>
</defs>
</svg>
